<?xml version="1.0" encoding="iso-8859-1"?>
<!-- Generator: Adobe Illustrator 19.0.0, SVG Export Plug-In . SVG Version: 6.00 Build 0)  -->
<svg version="1.1" id="Layer_1" xmlns="http://www.w3.org/2000/svg" xmlns:xlink="http://www.w3.org/1999/xlink" x="0px" y="0px"
	 viewBox="0 0 470 470" style="enable-background:new 0 0 470 470;" xml:space="preserve">
<g>
	<g>
		<path d="M333.872,340.738c-8.725-4.607-29.358-16.299-38.872-24.881v-21.726c29.67-17.465,50.125-47.779,57.273-84.87
			C371.42,205.401,385,186.82,385,170c0-15.582-11.484-26.442-30-29.266v-15.543c0.157-4.469,1.191-56.428-33.178-92.324
			C300.94,11.058,271.729,0,235,0c-36.825,0-66.086,11.079-86.971,32.93c-34.276,35.861-33.195,87.695-33.029,92.263v15.542
			C96.484,143.558,85,154.418,85,170c0,16.82,13.58,35.401,32.727,39.261c7.147,37.089,27.601,67.402,57.273,84.87v21.726
			c-9.522,8.589-30.18,20.292-38.893,24.892c-98.96,32.188-101.064,91.568-101.106,94.086C35,434.89,35,434.945,35,435v25
			c0,5.523,4.477,10,10,10h380c5.523,0,10-4.477,10-10v-25.055C434.986,432.41,433.521,372.639,333.872,340.738z M355,161.052
			c5.103,1.191,10,3.7,10,8.948c0,5.897-4.216,12.849-10.174,16.809C354.929,184.501,355,161.052,355,161.052z M105,170
			c0-5.248,4.897-7.757,10-8.948c0,0,0.071,23.45,0.174,25.757C109.216,182.849,105,175.897,105,170z M309.825,350.193
			l-33.034,19.269l-5.592-25.162c5.782-3.479,10.575-7.267,14.146-10.467C292.614,339.644,301.957,345.555,309.825,350.193z
			 M255.281,330.182c-13.355,6.395-27.152,6.421-40.618-0.026c-9.306-4.386-16.28-10.658-19.664-14.068v-12.693
			C207.538,307.775,220.932,310,235,310c14.067,0,27.461-2.225,40-6.607v12.692C271.603,319.507,264.62,325.779,255.281,330.182z
			 M162.59,46.641C179.55,28.963,203.912,20,235,20c31,0,55.316,8.946,72.272,26.591c21.114,21.97,26.208,52.573,27.402,68.098
			c-56.33-3.32-98.459-32.543-98.893-32.849c-3.05-2.162-7.053-2.44-10.374-0.723C222.086,82.834,220,86.261,220,90
			c0,1.838-2.789,5.316-10.648,9.069c-7.907,3.775-19.195,7.081-33.55,9.825c-15.196,2.904-30.562,4.522-40.459,5.355
			C136.572,98.602,141.716,68.399,162.59,46.641z M135,134.353c10.185-0.807,27.179-2.505,44.371-5.78
			c28.698-5.466,47.021-13.329,55.365-23.843c17.252,9.909,54.181,27.691,100.264,30.017V165h-5v-10c0-5.523-4.477-10-10-10h-70
			c-5.523,0-10,4.477-10,10v10h-10v-10c0-5.523-4.477-10-10-10h-70c-5.523,0-10,4.477-10,10v10h-5V134.353z M310,165v20h-50v-20H310
			z M210,165v20h-50v-20H210z M136.215,198.503c-0.58-4.652-0.946-9.169-1.11-13.503H140c0,11.028,8.972,20,20,20h50
			c11.028,0,20-8.972,20-20h10c0,11.028,8.972,20,20,20h50c11.028,0,20-8.972,20-20h4.895c-0.165,4.333-0.531,8.851-1.11,13.503
			c-5.052,36.73-24.736,66.317-54.006,81.178C266.271,286.528,251.205,290,235,290s-31.271-3.472-44.773-10.316
			C160.951,264.82,141.267,235.233,136.215,198.503z M184.653,333.833c3.572,3.204,8.366,6.994,14.146,10.47l-5.591,25.158
			l-33.033-19.269C168.042,345.555,177.384,339.644,184.653,333.833z M55,450v-14.791c0.066-1.023,1.041-12.561,11.364-26.981
			c17.442-24.363,48.239-39.032,72.5-47.314l52.213,30.457L202.802,450H55z M246.802,450h-23.604l-12.978-64.891l7.241-32.586
			C223.246,354.159,229.11,355,235,355c5.894,0,11.763-0.842,17.539-2.475l7.241,32.584L246.802,450z M415,450H267.198
			l11.726-58.629l52.241-30.474c42.348,14.201,62.876,33.386,72.681,47.185c10.371,14.597,11.117,26.279,11.154,27.05V450z"/>
	</g>
</g>
<g>
</g>
<g>
</g>
<g>
</g>
<g>
</g>
<g>
</g>
<g>
</g>
<g>
</g>
<g>
</g>
<g>
</g>
<g>
</g>
<g>
</g>
<g>
</g>
<g>
</g>
<g>
</g>
<g>
</g>
</svg>
